# xmcd
#
# Track frame offsets:
#	150
#	14122
#	31593
#	47024
#	62934
#	74449
#	90882
#	100124
#	112645
#	122434
#	135922
#	149655
#
# Disc length: 2169 seconds
#
# Revision: 0
# Processed by: cddbd v1.5.2PL0 Copyright (c) Steve Scherf et al.
# Submitted via: EasyCDDAExtractor 10.0.2.1
#
DISCID=9708770c
DTITLE=Kershaw, Doug - Devil's Elbow
DYEAR=1972
DGENRE=Cajun
TTITLE0=Super Cowboy
TTITLE1=Devil's Elbow
TTITLE2=Get a Little Dirt on Your Hands
TTITLE3=Jamestonw Ferry
TTITLE4=Billy Bayou
TTITLE5=Lou'siana Sun
TTITLE6=You Don't Want My Love
TTITLE7=Honky Tonk Wine
TTITLE8=Fisherman's Luck
TTITLE9=Sally Was a Good Old Girl
TTITLE10=I Like Babies
TTITLE11=(Had Not Been For) My Sally Joe
EXTD=
EXTT0=
EXTT1=
EXTT2=
EXTT3=
EXTT4=
EXTT5=
EXTT6=
EXTT7=
EXTT8=
EXTT9=
EXTT10=
EXTT11=
PLAYORDER=
